# xmcd
#
# Track frame offsets:
#	150
#	21926
#	43654
#	64225
#	79005
#	101492
#	121897
#	135712
#	153037
#	175035
#
# Disc length: 2613 seconds
# Revision: 0
# Processed by: cddbd v1.5.2PL0 Copyright (c) Steve Scherf et al.
# Submitted via: dBpowerAMP V12.0
#
DISCID=770a330a
DTITLE=Various Artist - My Contribution to the Global Warming - 3. Remixes from 2005 to 2012
DYEAR=2006
DGENRE=Electronic
TTITLE0=Mylo - Paris Four Hundred (Odyssée Minimal - Trancey - Progressive Barré Avec Multiples Breaks Remix)
TTITLE1=Whomadewho - Out the Door (Superdiscount Remix)
TTITLE2=Eyerer and Namito - Quipa (Étienne de Crécy Remix)
TTITLE3=The Bumblebeez - Rio (Dub Mix)
TTITLE4=Cut Copy - Lights and Music (Superdiscount Remix)
TTITLE5=Adam Freeland - How to Fake Your Own Life (Étienne de Crécy Remix)
TTITLE6=Keren Ann - Between the Flatland and the Caspian Sea (Étienne de Crécy Remix)
TTITLE7=The Shoes - Stay the Same (Étienne de Crécy Remix)
TTITLE8=Taï - Big Bass Drum (Étienne de Crécy Remix)
TTITLE9=Light Year - Moderation (Buck Rodger's Favorite Mix)
EXTD=
EXTT0=
EXTT1=
EXTT2=
EXTT3=
EXTT4=
EXTT5=
EXTT6=
EXTT7=
EXTT8=
EXTT9=
PLAYORDER=
